<?xml version="1.0" encoding="UTF-8"?>
<svg id="Layer_1" xmlns="http://www.w3.org/2000/svg" version="1.1" viewBox="0 0 100 100">
  <!-- Generator: Adobe Illustrator 30.2.1, SVG Export Plug-In . SVG Version: 2.1.1 Build 1)  -->
  <defs>
    <style>
      .st0 {
        fill: #004277;
      }
    </style>
  </defs>
  <path class="st0" d="M50.29,79.24c-9.92,0-20.47-2.92-20.47-8.34s10.54-8.34,20.47-8.34,20.47,2.92,20.47,8.34-10.54,8.34-20.47,8.34ZM50.29,64.78c-10.75,0-18.25,3.23-18.25,6.12s7.49,6.12,18.25,6.12,18.25-3.23,18.25-6.12-7.49-6.12-18.25-6.12ZM50.79,74.1c-.18,0-.35,0-.53,0-21.77-.22-34.26-14.22-34.26-38.43,0-.21,0-.42.03-.6.04-.38.08-.55.15-.72,2.22-4.94,27.78-5.49,30.69-5.54h3.39c1.38,0,2.73,0,4.06.02,12.06.22,27.07,1.66,29.69,4.96.29.51.42.87.48,1.26.06.18.06.43.06.61h0c-.26,25.5-11.63,38.43-33.77,38.43ZM46.9,31.03c-19.02.31-28.06,2.88-28.66,4.19-.01.26,0,.36,0,.45,0,22.8,11.69,36,32.06,36.21,20.98.13,31.81-11.99,32.06-36.21v-.13c-.05-.25-.1-.4-.17-.52-1.09-1.35-10.58-3.64-27.88-3.96-1.32-.02-2.65-.02-4.02-.02h-3.38ZM50.29,41.51c-1.34,0-31.99-.07-34.14-5.7l-.11-.11-.02-1,.12-.13c.02-.07.04-.14.07-.21,2.22-4.94,27.78-5.49,30.69-5.54h1.01c2.12-.05,4.34-.01,6.45.02,12.06.22,27.07,1.66,29.69,4.96.33.37.52.84.52,1.36v.46l-.11.13c-1.92,5.7-32.82,5.77-34.16,5.77ZM18.27,35.17c.85,1.46,12.14,4.12,32.02,4.12s30.95-2.6,32-4.13c-1.54-1.59-10.98-3.8-27.98-4.11-1.32-.02-2.65-.04-4.02-.04-.87.01-1.57,0-2.36.02h-1.02c-18.8.31-27.84,2.82-28.64,4.14ZM83.34,35.15h.1-.11,0ZM50.28,41.51c-7.8,0-15.13-.42-21.19-1.22-11.08-1.41-12.7-3.43-12.99-4.53l-.07-.07-.02-1,.12-.13c.02-.07.04-.14.07-.21,2.22-4.94,27.78-5.49,30.69-5.54h1.01c2.11-.06,4.33-.01,6.45.02,12.06.22,27.07,1.66,29.69,4.96.33.36.52.84.52,1.36l-.08.55c-.24,1.09-1.7,3.15-12.98,4.59-5.97.78-13.51,1.21-21.21,1.21ZM18.26,35.17c.32.46,2.84,1.88,11.11,2.93,11.78,1.54,30.07,1.54,41.83,0,8.04-1.03,10.64-2.4,11.07-2.94-1.56-1.59-11-3.79-27.97-4.11-1.33-.02-2.65-.04-4.02-.04-.74-.03-1.57,0-2.36.02h-1.02c-18.78.31-27.83,2.81-28.64,4.14ZM83.34,35.15h.1-.11,0ZM50.28,41.51c-7.8,0-15.13-.42-21.19-1.22l-3.16-.41,2.73-1.64c5.43-3.26,13.31-5.13,21.62-5.13s16.21,1.87,21.64,5.13l2.73,1.64-3.16.41c-5.98.78-13.51,1.22-21.21,1.22ZM33.04,38.51c10.34,1.01,24.17,1.01,34.5,0-4.79-2.04-10.88-3.18-17.26-3.18s-12.45,1.14-17.24,3.18ZM62.11,38.58c-.18,0-.36-.02-.54-.06l-5.86-1.42c-1.08-.26-1.82-1.26-1.76-2.37l.81-15.84c.02-.75.44-1.42,1.12-1.78.61-.33,1.35-.33,1.96-.03l.68.15c6.92,1.57,12.98,5.6,17.1,11.37.49.4.78,1,.78,1.64,0,.84-.46,1.58-1.2,1.93l-12.04,6.15c-.33.17-.69.25-1.05.25ZM56.86,19.07l-.69,15.77,5.92,1.52,12.02-6.11-.19-.22c-3.81-5.4-9.45-9.17-15.88-10.63l-1.19-.33Z"/>
</svg>