<?xml version="1.0" encoding="UTF-8"?>
<svg id="Layer_1" xmlns="http://www.w3.org/2000/svg" version="1.1" viewBox="0 0 100 100">
  <!-- Generator: Adobe Illustrator 30.2.1, SVG Export Plug-In . SVG Version: 2.1.1 Build 1)  -->
  <defs>
    <style>
      .st0 {
        fill: #fff;
      }
    </style>
  </defs>
  <path class="st0" d="M80.77,64.79H30.77c-8.25,0-14.96-6.71-14.96-14.96,0-3.01.9-5.93,2.62-8.43,2.8-4.09,7.41-6.53,12.34-6.53h49.99c4.91,0,9.53,2.44,12.34,6.53,1.71,2.5,2.62,5.42,2.62,8.43,0,8.25-6.71,14.96-14.96,14.96ZM30.77,36.63c-4.35,0-8.43,2.16-10.9,5.77-1.51,2.21-2.31,4.78-2.31,7.44,0,7.28,5.93,13.21,13.21,13.21h49.99c7.29,0,13.21-5.93,13.21-13.21,0-2.66-.8-5.23-2.31-7.44-2.49-3.61-6.56-5.77-10.9-5.77H30.77Z"/>
  <path class="st0" d="M30.77,64.79c-8.25,0-14.96-6.71-14.96-14.96s6.71-14.96,14.96-14.96c3.47,0,6.85,1.22,9.51,3.44,1.65,1.34,3,3.04,3.93,4.95h0l.25.51c.1.21.18.41.25.62.67,1.7,1.01,3.53,1.01,5.44,0,3.05-.92,5.99-2.65,8.5-2.79,4.04-7.39,6.46-12.3,6.46ZM30.77,36.63c-7.29,0-13.21,5.93-13.21,13.21s5.93,13.21,13.21,13.21c4.34,0,8.4-2.13,10.87-5.7,1.53-2.22,2.34-4.81,2.34-7.51,0-1.68-.3-3.31-.9-4.82-.02-.06-.05-.13-.07-.18l-.16-.34c-.82-1.87-2.09-3.54-3.68-4.83-2.38-1.99-5.28-3.04-8.39-3.04Z"/>
  <path class="st0" d="M22.54,41.01c-1.97,0-3.58-1.61-3.58-3.58s1.61-3.58,3.58-3.58,3.58,1.61,3.58,3.58-1.61,3.58-3.58,3.58ZM22.54,35.59c-1.01,0-1.83.82-1.83,1.83s.82,1.83,1.83,1.83,1.83-.82,1.83-1.83-.82-1.83-1.83-1.83Z"/>
  <path class="st0" d="M37.92,57.69c-5.88,0-12.09-1.24-17.54-3.5l-.1-.05.21-.86-.41.78c-6.03-2.5-11.48-6.26-15.34-10.58-.19-.22-.55-.62-.49-1.17.05-.39.32-1.04,1.6-1.06,6.09-.07,12.48,1.16,18.1,3.5l-.11.9.31-.82c6.13,2.54,11.58,6.3,15.44,10.62.18.2.55.62.49,1.18-.04.38-.31,1.03-1.6,1.05-.19,0-.37,0-.56,0ZM21.05,52.58c5.08,2.11,11.08,3.32,16.59,3.37-3.73-3.9-8.65-7.2-14.07-9.45l-.25-.11c-5.12-2.13-11.13-3.34-16.64-3.39,3.73,3.9,8.65,7.2,14.07,9.45l.25.1-.29.83.33-.81Z"/>
  <path class="st0" d="M42.66,52.25c-5.36,0-11.01-1.13-15.98-3.19l-.08-.04.2-.86-.39.78c-5.49-2.28-10.46-5.71-13.99-9.64-.17-.19-.53-.59-.46-1.13.04-.37.3-1.01,1.53-1.02,5.53-.09,11.36,1.06,16.49,3.19l-.12.9.31-.82c5.58,2.32,10.54,5.74,14.07,9.68.17.19.53.59.46,1.13-.04.37-.3,1.01-1.53,1.02-.17,0-.34,0-.51,0ZM27.35,47.45c4.55,1.89,9.92,2.99,14.87,3.05-3.36-3.48-7.78-6.42-12.64-8.44l-.22-.09c-4.61-1.91-9.98-3.01-14.93-3.08,3.36,3.48,7.78,6.42,12.64,8.44l.24.1-.3.82.33-.81Z"/>
  <path class="st0" d="M45.14,45.57h-15.98c-2.06,0-3.74-1.68-3.74-3.74s1.68-3.72,3.74-3.72h10.87l.24.2c1.65,1.34,3.01,3.05,3.94,4.96h0l.25.51c.1.21.18.41.25.62l.43,1.17ZM29.16,39.86c-1.1,0-1.99.89-1.99,1.98s.89,1.99,1.99,1.99h13.37c-.77-1.51-1.84-2.86-3.13-3.97h-10.24Z"/>
  <path class="st0" d="M40.08,59.06c-4.61,0-8.35-3.75-8.35-8.35s3.75-8.35,8.35-8.35c1.32,0,2.59.31,3.78.91h.36l.25.52c.84,1.91,1.26,3.94,1.26,6.05,0,3.05-.92,5.99-2.65,8.5l-.17.24-.29.09c-.82.26-1.67.39-2.54.39ZM40.08,44.1c-3.64,0-6.6,2.96-6.6,6.61s2.96,6.61,6.6,6.61c.59,0,1.17-.08,1.73-.23,1.42-2.16,2.17-4.66,2.17-7.25,0-1.76-.33-3.46-.99-5.05-.91-.45-1.89-.68-2.91-.68Z"/>
  <path class="st0" d="M41.22,60.55H15.69c-2.06,0-3.74-1.68-3.74-3.74s1.68-3.72,3.74-3.72h27.82c.29,0,.57.03.89.11l.92.21-.28.9c-.69,2.23-1.92,4.3-3.56,5.98l-.26.26ZM15.69,54.83c-1.1,0-1.99.89-1.99,1.97s.89,1.99,1.99,1.99h24.79c1.07-1.16,1.93-2.51,2.52-3.97H15.69Z"/>
  <path class="st0" d="M22.91,57c-1.97,0-3.58-1.61-3.58-3.58s1.61-3.58,3.58-3.58,3.58,1.61,3.58,3.58-1.61,3.58-3.58,3.58ZM22.91,51.58c-1.01,0-1.83.82-1.83,1.83s.82,1.83,1.83,1.83,1.83-.82,1.83-1.83-.82-1.83-1.83-1.83Z"/>
  <path class="st0" d="M32.61,48.66c-1.97,0-3.58-1.61-3.58-3.58s1.61-3.58,3.58-3.58,3.58,1.61,3.58,3.58-1.61,3.58-3.58,3.58ZM32.61,43.24c-1.01,0-1.83.82-1.83,1.83s.82,1.83,1.83,1.83,1.83-.82,1.83-1.83-.82-1.83-1.83-1.83Z"/>
  <path class="st0" d="M73.69,60.8c-3.02,0-6.01-.78-8.61-2.31-3.61-2.11-5.68-5.18-7.87-8.43-.43-.63-.86-1.27-1.3-1.91-1.86-2.66-3.87-4.88-5.99-6.58-3.43-2.76-7.34-4.47-11.33-4.95l.21-1.74c4.31.52,8.54,2.36,12.22,5.32,2.25,1.81,4.37,4.15,6.32,6.94.45.64.89,1.29,1.32,1.94,2.07,3.08,4.03,5.99,7.3,7.89,3.6,2.11,8.01,2.64,12.09,1.45,4.01-1.16,7.25-3.78,9.11-7.37.86-1.64,1.39-3.39,1.59-5.2.15-1.4.32-4.95-1.37-7.56l1.47-.95c1.99,3.08,1.81,7.11,1.64,8.69-.22,2.02-.82,3.98-1.77,5.82-2.09,4.02-5.7,6.95-10.18,8.25-1.59.46-3.23.69-4.85.69Z"/>
</svg>