<?xml version="1.0" encoding="UTF-8"?>
<svg id="Layer_1" xmlns="http://www.w3.org/2000/svg" version="1.1" viewBox="0 0 100 100">
  <!-- Generator: Adobe Illustrator 30.2.1, SVG Export Plug-In . SVG Version: 2.1.1 Build 1)  -->
  <defs>
    <style>
      .st0 {
        fill: #fff;
      }
    </style>
  </defs>
  <path class="st0" d="M84.92,66.74h-.04l-53.89-.31c-2-.01-3.86-.91-5.12-2.48-1.24-1.55-1.72-3.54-1.3-5.47,3.37-15.61,17.39-26.9,33.37-26.9.07,0,.13,0,.2,0,16.06.09,30.05,11.56,33.25,27.28.39,1.93-.1,3.92-1.36,5.46-1.26,1.54-3.12,2.42-5.11,2.42ZM57.94,33.31c-15.17,0-28.48,10.71-31.68,25.54-.31,1.42.04,2.89.96,4.03.93,1.16,2.31,1.82,3.78,1.83l53.89.31h.03c1.47,0,2.84-.65,3.78-1.79.93-1.13,1.29-2.6,1-4.02-3.04-14.92-16.32-25.81-31.57-25.9-.06,0-.12,0-.19,0Z"/>
  <path class="st0" d="M44.75,45.83c-.29,0-.72-.04-1.03-.37-.27-.29-.59-.9.21-1.88,3.75-4.61,8.73-8.68,14.03-11.45l.1-.05.52.7-.32-.8c5.68-2.97,11.95-4.71,17.64-4.91.27-.01.82-.03,1.2.37.32.34.54.94-.21,1.87-3.75,4.61-8.73,8.68-14.04,11.45l-.16.08c-5.81,3.04-12.07,4.78-17.77,4.98-.05,0-.1,0-.16,0ZM58.37,32.89l.4.76c-4.79,2.5-9.48,6.26-12.98,10.39,5.29-.36,10.87-1.99,15.97-4.66l.15-.08c4.91-2.56,9.61-6.32,13.11-10.45-5.29.36-10.87,1.99-15.97,4.66l-.24.12-.45-.74Z"/>
  <path class="st0" d="M84.04,66.74l-1.38-.31c-1.23-.27-2.41-.59-3.33-1.47-.7-.71-1.25-1.53-1.6-2.4-.39-.91-.5-1.84-.6-2.73l-.02-.19c-.08-.77-.22-1.5-.42-2.25-.26-1.01-.58-2.01-.97-3.06-.38-1.02-.87-2.1-1.48-3.3-1.3-1.43-2.58-2.64-3.93-3.7-.87-.68-1.72-1.28-2.62-1.85-.66-.41-1.32-.77-2.01-1.07l-.17-.08c-.83-.37-1.68-.76-2.45-1.41-.71-.59-1.33-1.36-1.78-2.23-.55-1.11-.79-2.4-.68-3.64l.13-1.41,1.2.76c.22.14.79.5,1.09.54.4.04,1.31-.31,2.04-.6,1.25-.49,2.53-1.01,3.55-.63,1,.37,1.58,1.52,2.19,2.74.35.68.82,1.62,1.17,1.82.36.2,1.24.3,2.02.39,1.38.16,2.81.32,3.55,1.14.72.81.72,2.2.71,3.53,0,.48,0,.97.03,1.38.4.24,1.13.47,1.74.65,1.28.4,2.6.81,3.15,1.74.56.95.29,2.36.02,3.73-.15.77-.32,1.64-.23,2.05.08.38.83,1.12,1.38,1.65.98.95,1.9,1.85,1.95,2.92.05,1.08-.82,2.16-1.67,3.2-.49.61-1.11,1.36-1.19,1.77-.01.06.01.14.1.42.05.15.1.32.16.52l.37,1.37ZM62.36,38.56c.08.47.23.93.44,1.35.34.65.81,1.24,1.36,1.69.59.51,1.29.82,2.04,1.16l.17.07c.76.34,1.49.73,2.23,1.19.95.6,1.85,1.24,2.76,1.95,1.45,1.14,2.83,2.44,4.22,3.99l.13.18c.67,1.29,1.2,2.47,1.61,3.58.42,1.11.75,2.16,1.03,3.23.22.83.37,1.65.46,2.49l.02.19c.1.81.19,1.58.48,2.27.27.67.7,1.3,1.22,1.84.3.29.7.5,1.15.66,0-.09.01-.19.03-.29.17-.84.84-1.66,1.54-2.53.52-.64,1.3-1.61,1.28-2.03-.02-.39-.87-1.22-1.43-1.77-.86-.84-1.67-1.63-1.87-2.53-.16-.76.03-1.72.23-2.74.17-.85.41-2.14.19-2.52-.21-.36-1.4-.73-2.18-.97-1.06-.33-2.05-.64-2.65-1.22l-.2-.2-.05-.28c-.1-.6-.1-1.31-.09-1.99,0-.82,0-2.06-.27-2.38-.3-.33-1.6-.48-2.46-.58-1.03-.12-2-.23-2.67-.6-.81-.46-1.32-1.47-1.86-2.55-.36-.7-.89-1.76-1.25-1.9-.4-.15-1.56.31-2.32.61-1.04.41-2.03.8-2.87.71-.15-.02-.3-.05-.44-.1Z"/>
  <path class="st0" d="M73.42,41.01h-30.06c-.3,0-.61-.04-.95-.12l-.9-.21.27-.88c.74-2.4,2.07-4.62,3.83-6.43l.25-.26h27.55c2.18,0,3.96,1.78,3.96,3.96s-1.78,3.94-3.96,3.94ZM43.79,39.28h29.63c1.23,0,2.24-.99,2.24-2.22s-1-2.24-2.24-2.24h-26.82c-1.2,1.3-2.16,2.81-2.81,4.45Z"/>
  <path class="st0" d="M57.17,45.61c-4.71,0-8.55-3.84-8.55-8.55s3.84-8.55,8.55-8.55,8.55,3.84,8.55,8.55-3.84,8.55-8.55,8.55ZM57.17,30.23c-3.76,0-6.83,3.06-6.83,6.83s3.06,6.83,6.83,6.83,6.83-3.06,6.83-6.83-3.06-6.83-6.83-6.83Z"/>
  <path class="st0" d="M83.84,66.73c-.1.07-5.54-.03-9-.05l-56.44-.32c-2-.01-3.86-.91-5.12-2.48-1.24-1.55-1.72-3.54-1.3-5.47,3.37-15.61,17.39-26.9,33.37-26.9.42,0,.84,0,1.26.02,2.31.08,4.61.4,6.84.94,2.18.53,4.31,1.28,6.34,2.23,2,.93,3.91,2.07,5.69,3.37,1.77,1.29,3.42,2.76,4.91,4.37,1.5,1.61,2.84,3.38,3.99,5.24,1.17,1.88,2.16,3.89,2.93,5.96.4,1.05.74,2.13,1.03,3.21.21.79.36,1.61.46,2.49.1.92.2,1.74.5,2.48.28.68.7,1.3,1.22,1.81.88.85,2.12,1.37,3.33,1.39h0l-.03,1.72ZM45.36,33.23c-15.18,0-28.48,10.71-31.68,25.54-.31,1.42.04,2.89.96,4.03.93,1.16,2.31,1.82,3.78,1.83l56.44.32c1.38,0,3.07.02,4.61.03-.04-.04-.09-.08-.13-.12-.69-.67-1.25-1.49-1.61-2.39-.4-.96-.51-1.94-.62-2.9-.1-.84-.23-1.57-.42-2.28-.27-1.02-.6-2.05-.97-3.04-.74-1.96-1.68-3.87-2.79-5.66-1.09-1.77-2.37-3.44-3.79-4.97-1.42-1.53-2.99-2.93-4.66-4.15-1.69-1.24-3.51-2.31-5.41-3.2-1.93-.9-3.95-1.61-6.02-2.11-2.12-.52-4.3-.82-6.5-.9-.39-.01-.8-.02-1.19-.02Z"/>
</svg>