<?xml version="1.0" encoding="UTF-8"?>
<svg id="Layer_1" xmlns="http://www.w3.org/2000/svg" version="1.1" viewBox="0 0 100 100">
  <!-- Generator: Adobe Illustrator 30.2.1, SVG Export Plug-In . SVG Version: 2.1.1 Build 1)  -->
  <defs>
    <style>
      .st0 {
        fill: #fff;
      }
    </style>
  </defs>
  <path class="st0" d="M71.11,73.52H30.95c-7.67,0-14.58-3.31-17.58-8.45-.38-.62-.69-1.28-.95-1.99-.15-.42-.23-.87-.23-1.33,0-2.72,2.93-4.94,6.53-4.94h64.63c2.42,0,4.63,1,5.76,2.62.79,1.12.97,2.42.52,3.65-.26.71-.57,1.37-.95,2-1.29,2.2-3.35,4.13-5.95,5.57-3.35,1.88-7.37,2.87-11.62,2.87ZM18.73,58.61c-2.57,0-4.74,1.44-4.74,3.15,0,.25.04.49.12.72.22.6.48,1.15.8,1.69,2.7,4.6,8.99,7.57,16.04,7.57h40.16c3.89,0,7.71-.94,10.75-2.64,2.33-1.29,4.15-2.98,5.28-4.92.33-.54.59-1.09.81-1.7h0c.31-.86,0-1.57-.31-2.01-.79-1.13-2.47-1.85-4.29-1.85H18.73Z"/>
  <path class="st0" d="M23.32,65.6c-4.7,0-8.53-3.83-8.53-8.53s3.83-8.53,8.53-8.53,8.53,3.83,8.53,8.53-3.83,8.53-8.53,8.53ZM23.32,50.33c-3.72,0-6.74,3.02-6.74,6.74s3.02,6.74,6.74,6.74,6.74-3.02,6.74-6.74-3.02-6.74-6.74-6.74Z"/>
  <path class="st0" d="M41.79,65.6c-4.7,0-8.53-3.83-8.53-8.53s3.83-8.53,8.53-8.53,8.53,3.83,8.53,8.53-3.83,8.53-8.53,8.53ZM41.79,50.33c-3.72,0-6.74,3.02-6.74,6.74s3.02,6.74,6.74,6.74,6.74-3.02,6.74-6.74-3.02-6.74-6.74-6.74Z"/>
  <path class="st0" d="M60.28,65.6c-4.7,0-8.53-3.83-8.53-8.53s3.83-8.53,8.53-8.53,8.53,3.83,8.53,8.53-3.83,8.53-8.53,8.53ZM60.28,50.33c-3.72,0-6.74,3.02-6.74,6.74s3.02,6.74,6.74,6.74,6.74-3.02,6.74-6.74-3.02-6.74-6.74-6.74Z"/>
  <path class="st0" d="M78.75,65.6c-4.7,0-8.53-3.83-8.53-8.53s3.83-8.53,8.53-8.53,8.53,3.83,8.53,8.53-3.83,8.53-8.53,8.53ZM78.75,50.33c-3.72,0-6.74,3.02-6.74,6.74s3.02,6.74,6.74,6.74,6.74-3.02,6.74-6.74-3.02-6.74-6.74-6.74Z"/>
  <path class="st0" d="M85.78,58.77H16.3c-2.22,0-4.03-1.8-4.03-4.01s1.81-4.03,4.03-4.03h69.48c2.21,0,4.01,1.81,4.01,4.03s-1.8,4.01-4.01,4.01ZM16.3,52.52c-1.23,0-2.24,1-2.24,2.24s1,2.22,2.24,2.22h69.48c1.22,0,2.22-1,2.22-2.22s-1-2.24-2.22-2.24H16.3Z"/>
  <path class="st0" d="M85.77,52.36H16.3c-2.22,0-4.02-1.8-4.02-4.02s1.8-4.02,4.02-4.02h69.47c2.22,0,4.02,1.8,4.02,4.02s-1.8,4.02-4.02,4.02ZM16.3,46.11c-1.23,0-2.23,1-2.23,2.23s1,2.23,2.23,2.23h69.47c1.23,0,2.23-1,2.23-2.23s-1-2.23-2.23-2.23H16.3Z"/>
  <path class="st0" d="M29.39,64.2c-.16,0-.32-.02-.48-.07-.58-.17-1.03-.64-1.17-1.23l-2.85-12.33h17.37l.26.41c.18.28.18.55.18.68,0,.47-.2.92-.54,1.24l-11.61,10.84c-.31.3-.72.46-1.15.46ZM27.13,52.36l2.34,10.13,10.64-10.13h-12.98ZM41.76,51.66h.03-.03s0,0,0,0Z"/>
  <path class="st0" d="M77.71,60.37c-.43,0-.84-.16-1.16-.47l-11.8-11.01,1.36-.5c.75-.28,1.28-.9,1.88-1.63.91-1.09,2.03-2.44,4.23-2.44s3.33,1.36,4.23,2.45c.93,1.11,1.56,1.79,2.84,1.79.4,0,.75-.07,1.07-.21l1.63-.71-2.64,11.42c-.14.6-.59,1.07-1.17,1.24-.16.05-.32.07-.48.07ZM67.92,49.4l9.85,9.2,1.78-8.25c-.09,0-.17,0-.26,0-2.18,0-3.31-1.35-4.21-2.44-.84-1.01-1.5-1.8-2.86-1.8s-2.02.79-2.85,1.79c-.42.5-.87,1.05-1.45,1.49Z"/>
  <path class="st0" d="M83.34,45.95H18.72c-2.27,0-4.34-.98-5.54-2.61-.97-1.32-1.25-2.88-.77-4.4,2.2-7.06,9.83-11.98,18.55-11.98h40.15c8.72,0,16.35,4.93,18.55,11.98.47,1.51.2,3.07-.77,4.39-1.2,1.63-3.27,2.61-5.54,2.61ZM30.95,28.75c-7.94,0-14.87,4.41-16.84,10.73-.3.96-.12,1.95.51,2.8.87,1.18,2.4,1.88,4.09,1.88h64.63c1.7,0,3.23-.7,4.1-1.88.63-.85.81-1.84.51-2.8-1.97-6.32-8.9-10.73-16.84-10.73H30.95Z"/>
  <path class="st0" d="M79.3,50.36c-2.18,0-3.31-1.35-4.21-2.44-.84-1.01-1.5-1.8-2.86-1.8s-2.02.79-2.85,1.79c-.67.8-1.43,1.72-2.63,2.16-.43.19-.97.29-1.58.29-2.18,0-3.31-1.35-4.22-2.44-.84-1.01-1.5-1.8-2.86-1.8-1.28,0-1.91.68-2.84,1.79-.91,1.09-2.04,2.45-4.23,2.45s-3.31-1.35-4.22-2.44c-.93-1.12-1.56-1.8-2.84-1.8-1.35,0-2.02.8-2.86,1.8-.91,1.09-2.03,2.44-4.21,2.44s-3.33-1.36-4.23-2.45c-.93-1.11-1.56-1.79-2.84-1.79-1.36,0-2.02.8-2.86,1.8-.91,1.09-2.03,2.44-4.21,2.44s-3.31-1.35-4.22-2.44c-.93-1.11-1.56-1.8-2.84-1.8v-1.79c2.18,0,3.31,1.36,4.22,2.44.93,1.11,1.56,1.8,2.84,1.8s1.91-.68,2.84-1.79c.91-1.09,2.04-2.45,4.23-2.45s3.31,1.35,4.21,2.44c.84,1.01,1.5,1.8,2.86,1.8,1.28,0,1.91-.68,2.84-1.8.91-1.09,2.04-2.45,4.23-2.45s3.31,1.36,4.22,2.44c.93,1.11,1.56,1.8,2.84,1.8,1.36,0,2.02-.8,2.86-1.8.91-1.09,2.03-2.44,4.21-2.44s3.32,1.36,4.23,2.45c.93,1.11,1.56,1.8,2.84,1.8.37,0,.66-.05.92-.16.8-.3,1.32-.92,1.92-1.65.91-1.09,2.03-2.44,4.23-2.44s3.33,1.36,4.23,2.45c.93,1.11,1.56,1.79,2.84,1.79.4,0,.75-.07,1.07-.21.7-.3,1.23-.93,1.79-1.59.91-1.09,2.04-2.44,4.23-2.44v1.79c-1.35,0-2.02.79-2.86,1.8-.63.76-1.35,1.62-2.44,2.09-.55.24-1.14.36-1.79.36Z"/>
  <g>
    <g>
      <path class="st0" d="M52.82,28.66c4.34,4.34,8.69,8.69,13.03,13.03.77.77,1.98-.43,1.2-1.2-4.34-4.34-8.69-8.69-13.03-13.03-.77-.77-1.98.43-1.2,1.2h0Z"/>
      <path class="st0" d="M43.88,28.66c4.34,4.34,8.69,8.69,13.03,13.03.77.77,1.98-.43,1.2-1.2-4.34-4.34-8.69-8.69-13.03-13.03-.77-.77-1.98.43-1.2,1.2h0Z"/>
      <path class="st0" d="M34.76,28.48c4.4,4.4,8.81,8.81,13.21,13.21.77.77,1.98-.43,1.2-1.2-4.4-4.4-8.81-8.81-13.21-13.21-.77-.77-1.98.43-1.2,1.2h0Z"/>
    </g>
    <path class="st0" d="M32.57,35.24c1.76,1.76,3.51,3.51,5.27,5.27.77.77,1.98-.43,1.2-1.2l-5.27-5.27c-.77-.77-1.98.43-1.2,1.2h0Z"/>
    <path class="st0" d="M64.88,31.61c2.33,2.33,4.66,4.66,6.99,6.99.77.77,1.98-.43,1.2-1.2-2.33-2.33-4.66-4.66-6.99-6.99-.78-.77-1.98.43-1.2,1.2h0Z"/>
  </g>
</svg>